# xmcd
#
# Track frame offsets: 
#        150
#        9397
#        23512
#        29662
#        35330
#        51830
#        59805
#        63585
#        69037
#        72845
#        82400
#        97900
#        105037
#        115127
#        120247
#        127717
#        152725
#        165720
#        176487
#        186695
#        193300
#        211050
#        226357
#
# Disc length: 3280 seconds
#
# Revision: 2
# Processed by: cddbd v1.5.2PL0 Copyright (c) Steve Scherf et al.
# Submitted via: ExactAudioCopy v1.0b3
#
DISCID=330cce17
DTITLE=Snakeman - Snakeman's Rock Show! 3 Kurayami De Dokkiri
DYEAR=1900
DGENRE=Unclassifiable
TTITLE0=? ???? ????
TTITLE1=???????
TTITLE2=????????
TTITLE3=?????????
TTITLE4=????????H?K&His Super Low Budget Orchestra
TTITLE5=?????????????
TTITLE6=??
TTITLE7=Hanasakajijii 2
TTITLE8=Naanda Jikkensitsu
TTITLE9=Itazura Denwa
TTITLE10=Kinpatsukuun - Death Shinsi
TTITLE11=The Keiji Satsujin Gembanite
TTITLE12=The Keiji Torisirabesitsunite
TTITLE13=The Keiji Toilet Nite
TTITLE14=Zennippon Tetsudougaisha Taikou Kippu Hayagiri Taikai
TTITLE15=Lilly The Mountain - HK and His Super Low Budget Orchestra
TTITLE16=God Brothers Of Eyes Ti No Kizuna
TTITLE17=Denwa No Sinjitsu
TTITLE18=Moero! America No Hoshi
TTITLE19=Nenmatsunensi Inshuunten Torisimarichuu Deesu
TTITLE20=I Need Your Love Japan - Death Shinsi
TTITLE21=Seishun Gekijou Version
TTITLE22=Kinyouno Yoruto Doyouno Asano Aidade
EXTD=
EXTT0=
EXTT1=
EXTT2=
EXTT3=
EXTT4=
EXTT5=
EXTT6=
EXTT7=
EXTT8=
EXTT9=
EXTT10=
EXTT11=
EXTT12=
EXTT13=
EXTT14=
EXTT15=
EXTT16=
EXTT17=
EXTT18=
EXTT19=
EXTT20=
EXTT21=
EXTT22=
PLAYORDER=
